<svg width="50" height="105" viewBox="0 0 50 105" fill="none" xmlns="http://www.w3.org/2000/svg">
<path opacity="0.15" d="M37.95 -7.62939e-06V-2.00001H37.5764L37.228 -1.86514L37.95 -7.62939e-06ZM0.75 14.4L0.0280118 12.5349L-1.25 13.0296V14.4H0.75ZM0.75 39.45H-1.25V42.4575L1.52345 41.2944L0.75 39.45ZM24 29.7H26V26.6925L23.2265 27.8556L24 29.7ZM24 105H22V107H24V105ZM49.5 105V107H51.5V105H49.5ZM49.5 -7.62939e-06H51.5V-2.00001H49.5V-7.62939e-06ZM37.228 -1.86514L0.0280118 12.5349L1.47199 16.2651L38.672 1.86513L37.228 -1.86514ZM-1.25 14.4V39.45H2.75V14.4H-1.25ZM1.52345 41.2944L24.7735 31.5444L23.2265 27.8556L-0.0234535 37.6056L1.52345 41.2944ZM22 29.7V105H26V29.7H22ZM24 107H49.5V103H24V107ZM51.5 105V-7.62939e-06H47.5V105H51.5ZM49.5 -2.00001H37.95V1.99999H49.5V-2.00001Z" fill="#E2E574"/>
</svg>
