<svg width="82" height="107" viewBox="0 0 82 107" fill="none" xmlns="http://www.w3.org/2000/svg">
<path opacity="0.15" d="M42.1 82.7L41.2056 80.9111L42.1 84.7V82.7ZM42.4 82.55L43.2944 84.3389L43.5249 84.2236L43.7186 84.0537L42.4 82.55ZM52.15 74L50.8349 72.4931L50.8314 72.4963L52.15 74ZM1.45 38.6L-0.548559 38.5241L-0.627391 40.6H1.45V38.6ZM27.1 38.6V40.6H28.8901L29.0878 38.8209L27.1 38.6ZM31 62L32.3155 63.5065L32.3194 63.503L31 62ZM0.25 88.85L-1.06545 87.3435L-1.75 87.9412V88.85H0.25ZM0.25 107H-1.75V109H0.25V107ZM81.55 107V109H83.55V107H81.55ZM81.55 82.7H83.55V80.7H81.55V82.7ZM42.9944 84.4889L43.2944 84.3389L41.5056 80.7611L41.2056 80.9111L42.9944 84.4889ZM43.7186 84.0537L53.4686 75.5037L50.8314 72.4963L41.0814 81.0463L43.7186 84.0537ZM53.4651 75.5068C69.7445 61.2994 81.6 51.536 81.6 34.1H77.6C77.6 49.364 67.5555 57.9006 50.8349 72.4931L53.4651 75.5068ZM81.6 34.1C81.6 24.5179 77.9923 15.4807 71.2119 8.8399C64.4224 2.19016 54.5633 -1.95001 42.25 -1.95001V2.04999C53.6367 2.04999 62.4526 5.85982 68.4131 11.6976C74.3827 17.5443 77.6 25.5321 77.6 34.1H81.6ZM42.25 -1.95001C30.2678 -1.95001 19.7847 1.90696 12.1653 8.97082C4.53704 16.0428 -0.080564 26.2002 -0.548559 38.5241L3.44856 38.6759C3.88056 27.2998 8.11296 18.1822 14.8847 11.9042C21.6653 5.61803 31.1322 2.04999 42.25 2.04999V-1.95001ZM1.45 40.6H27.1V36.6H1.45V40.6ZM29.0878 38.8209C29.5892 34.3076 30.8123 31.2442 32.6543 29.3108C34.4442 27.4321 37.0806 26.35 41.05 26.35V22.35C36.3195 22.35 32.5058 23.6679 29.7582 26.5517C27.0627 29.3808 25.6608 33.4423 25.1122 38.3791L29.0878 38.8209ZM41.05 26.35C45.4276 26.35 48.0419 27.6702 49.5724 29.2873C51.1324 30.9355 51.8 33.1389 51.8 35.3H55.8C55.8 32.3611 54.8926 29.0895 52.4776 26.5377C50.0331 23.9548 46.2724 22.35 41.05 22.35V26.35ZM51.8 35.3C51.8 36.6876 51.6296 37.7907 51.1537 38.937C50.6647 40.1147 49.8049 41.4538 48.2594 43.2316C45.126 46.8359 39.5521 51.8311 29.6806 60.497L32.3194 63.503C42.0979 54.9189 47.924 49.7141 51.2781 45.8559C52.9764 43.9024 54.1322 42.1946 54.8479 40.4708C55.5767 38.7156 55.8 37.0624 55.8 35.3H51.8ZM29.6846 60.4935L-1.06545 87.3435L1.56545 90.3565L32.3154 63.5065L29.6846 60.4935ZM-1.75 88.85V107H2.25V88.85H-1.75ZM0.25 109H81.55V105H0.25V109ZM83.55 107V82.7H79.55V107H83.55ZM81.55 80.7H42.1V84.7H81.55V80.7Z" fill="#E2E574"/>
</svg>
