<svg width="82" height="109" viewBox="0 0 82 109" fill="none" xmlns="http://www.w3.org/2000/svg">
<path opacity="0.3" d="M67.75 52.1L66.7264 50.3818L63.4266 52.3476L66.9293 53.9238L67.75 52.1ZM1 34.85L-0.99557 34.717L-1.13777 36.85H1V34.85ZM26.8 34.85V36.85H28.489L28.7718 35.1848L26.8 34.85ZM29.35 42.8V40.8H27.35V42.8H29.35ZM29.35 65H27.35V67H29.35V65ZM26.05 73.1L28.0306 72.822L27.7889 71.1H26.05V73.1ZM0.25 73.1V71.1H-1.8525L-1.7475 73.1999L0.25 73.1ZM68.7736 53.8182C76.4864 49.2234 81 40.7354 81 31.25H77C77 39.4646 73.1136 46.5766 66.7264 50.3818L68.7736 53.8182ZM81 31.25C81 11.962 64.2886 -1.95001 40.75 -1.95001V2.04999C62.8114 2.04999 77 14.838 77 31.25H81ZM40.75 -1.95001C29.7247 -1.95001 19.6832 1.23461 12.172 7.47405C4.63373 13.736 -0.211696 22.9589 -0.99557 34.717L2.99557 34.983C3.7117 24.2411 8.09127 16.064 14.728 10.5509C21.3918 5.01538 30.4753 2.04999 40.75 2.04999V-1.95001ZM1 36.85H26.8V32.85H1V36.85ZM28.7718 35.1848C29.3888 31.551 30.7005 29.4195 32.4041 28.1454C34.1492 26.8402 36.6155 26.2 40 26.2V22.2C36.1845 22.2 32.7258 22.9098 30.0084 24.9421C27.2495 27.0055 25.5612 30.1989 24.8282 34.5152L28.7718 35.1848ZM40 26.2C44.8889 26.2 47.5992 27.3705 49.0942 28.8096C50.5742 30.2343 51.2 32.2481 51.2 34.7H55.2C55.2 31.6019 54.4008 28.3657 51.8683 25.9279C49.3508 23.5045 45.4611 22.2 40 22.2V26.2ZM51.2 34.7C51.2 36.1109 50.9118 37.096 50.4979 37.8048C50.088 38.5069 49.481 39.0652 48.6328 39.5105C46.8441 40.4496 44.158 40.8 40.75 40.8V44.8C44.242 44.8 47.7809 44.4754 50.4922 43.052C51.894 42.3161 53.1058 41.2713 53.9521 39.8217C54.7945 38.379 55.2 36.664 55.2 34.7H51.2ZM40.75 40.8H29.35V44.8H40.75V40.8ZM27.35 42.8V65H31.35V42.8H27.35ZM29.35 67H43.15V63H29.35V67ZM43.15 67C48.0912 67 50.8066 67.7225 52.2755 68.7796C53.5579 69.7024 54.2 71.1214 54.2 73.7H58.2C58.2 70.4286 57.3421 67.4976 54.612 65.5329C52.0684 63.7025 48.2588 63 43.15 63V67ZM54.2 73.7C54.2 76.7466 53.4295 78.8563 51.7974 80.269C50.0962 81.7414 47.0736 82.8 41.8 82.8V86.8C47.4764 86.8 51.6538 85.6836 54.4151 83.2935C57.2455 80.8437 58.2 77.4034 58.2 73.7H54.2ZM41.8 82.8C37.4067 82.8 34.2514 82.0349 32.093 80.5194C30.0129 79.0589 28.5746 76.6979 28.0306 72.822L24.0694 73.378C24.7254 78.0521 26.5872 81.5411 29.7945 83.7931C32.9236 85.9901 37.0433 86.8 41.8 86.8V82.8ZM26.05 71.1H0.25V75.1H26.05V71.1ZM-1.7475 73.1999C-1.12098 85.7304 3.95995 95.2441 11.9429 101.591C19.8811 107.901 30.519 110.95 42.1 110.95V106.95C31.181 106.95 21.4939 104.074 14.4321 98.4595C7.41505 92.8809 2.82098 84.4696 2.2475 73.0001L-1.7475 73.1999ZM42.1 110.95C54.3973 110.95 64.8616 107.955 72.2953 102.04C79.7873 96.0786 84 87.3061 84 76.25H80C80 86.1938 76.2627 93.7714 69.8047 98.91C63.2884 104.095 53.8027 106.95 42.1 106.95V110.95ZM84 76.25C84 64.1881 78.3959 54.6975 68.5707 50.2762L66.9293 53.9238C75.1041 57.6025 80 65.5119 80 76.25H84Z" fill="#A6A93B"/>
</svg>
