<svg width="91" height="105" viewBox="0 0 91 105" fill="none" xmlns="http://www.w3.org/2000/svg">
<path opacity="0.15" d="M90.75 59.1H92.75V57.1H90.75V59.1ZM76.5 59.1H74.5V61.1H76.5V59.1ZM76.5 -7.62939e-06H78.5V-2.00001H76.5V-7.62939e-06ZM38.85 -7.62939e-06V-2.00001H37.7598L37.169 -1.08368L38.85 -7.62939e-06ZM0.75 59.1L-0.930969 58.0163L-1.25 58.5112V59.1H0.75ZM0.75 83.1H-1.25V85.106L0.75597 85.1L0.75 83.1ZM51 82.95H53V80.944L50.994 80.95L51 82.95ZM51 105H49V107H51V105ZM76.5 105V107H78.5V105H76.5ZM76.5 82.95V80.95H74.5V82.95H76.5ZM90.75 82.95V84.95H92.75V82.95H90.75ZM27.6 58.95L25.9077 57.8842L23.9768 60.95H27.6V58.95ZM49.8 23.7V21.7H48.696L48.1077 22.6342L49.8 23.7ZM51 23.7H53V21.7H51V23.7ZM51 58.95V60.95H53V58.95H51ZM90.75 57.1H76.5V61.1H90.75V57.1ZM78.5 59.1V-7.62939e-06H74.5V59.1H78.5ZM76.5 -2.00001H38.85V1.99999H76.5V-2.00001ZM37.169 -1.08368L-0.930969 58.0163L2.43097 60.1837L40.531 1.08366L37.169 -1.08368ZM-1.25 59.1V83.1H2.75V59.1H-1.25ZM0.75597 85.1L51.006 84.95L50.994 80.95L0.74403 81.1L0.75597 85.1ZM49 82.95V105H53V82.95H49ZM51 107H76.5V103H51V107ZM78.5 105V82.95H74.5V105H78.5ZM76.5 84.95H90.75V80.95H76.5V84.95ZM92.75 82.95V59.1H88.75V82.95H92.75ZM29.2923 60.0158L51.4924 24.7658L48.1077 22.6342L25.9077 57.8842L29.2923 60.0158ZM49.8 25.7H51V21.7H49.8V25.7ZM49 23.7V58.95H53V23.7H49ZM51 56.95H27.6V60.95H51V56.95Z" fill="#E2E574"/>
</svg>
