<svg width="83" height="107" viewBox="0 0 83 107" fill="none" xmlns="http://www.w3.org/2000/svg">
<path opacity="0.15" d="M32.65 37.5L30.6906 37.0992L29.815 41.3799L33.6272 39.245L32.65 37.5ZM35.35 24.3V22.3H33.7177L33.3906 23.8992L35.35 24.3ZM77.35 24.3V26.3H79.35V24.3H77.35ZM77.35 -7.62939e-06H79.35V-2.00001H77.35V-7.62939e-06ZM16.15 -7.62939e-06V-2.00001H14.5307L14.1938 -0.416126L16.15 -7.62939e-06ZM3.1 61.35L1.14377 60.9339L0.629826 63.35H3.1V61.35ZM27.4 61.35V63.35H28.5023L29.091 62.418L27.4 61.35ZM26.05 70.35L28.0404 70.1542L27.8629 68.35H26.05V70.35ZM0.25 70.35V68.35H-1.82183L-1.74876 70.4205L0.25 70.35ZM47.5 31.9C40.8614 31.9 35.7245 33.486 31.6728 35.755L33.6272 39.245C37.0755 37.314 41.5386 35.9 47.5 35.9V31.9ZM34.6094 37.9008L37.3094 24.7008L33.3906 23.8992L30.6906 37.0992L34.6094 37.9008ZM35.35 26.3H77.35V22.3H35.35V26.3ZM79.35 24.3V-7.62939e-06H75.35V24.3H79.35ZM77.35 -2.00001H16.15V1.99999H77.35V-2.00001ZM14.1938 -0.416126L1.14377 60.9339L5.05623 61.7661L18.1062 0.416111L14.1938 -0.416126ZM3.1 63.35H27.4V59.35H3.1V63.35ZM29.091 62.418C30.5005 60.1863 34.6399 56.9 41.5 56.9V52.9C33.3601 52.9 27.8996 56.8137 25.709 60.282L29.091 62.418ZM41.5 56.9C45.5517 56.9 48.7923 58.0652 50.992 60.0153C53.1637 61.9406 54.5 64.7858 54.5 68.55H58.5C58.5 63.7642 56.7613 59.7844 53.6455 57.0222C50.5577 54.2848 46.2983 52.9 41.5 52.9V56.9ZM54.5 68.55C54.5 72.1193 53.2531 75.1411 51.0428 77.273C48.8319 79.4054 45.4971 80.8 41.05 80.8V84.8C46.3529 84.8 50.7431 83.1195 53.8197 80.152C56.8969 77.1839 58.5 73.0807 58.5 68.55H54.5ZM41.05 80.8C37.8068 80.8 34.7278 80.0371 32.4062 78.3788C30.1477 76.7656 28.4374 74.1903 28.0404 70.1542L24.0596 70.5458C24.5626 75.6597 26.8273 79.3094 30.0813 81.6337C33.2722 83.9129 37.2432 84.8 41.05 84.8V80.8ZM26.05 68.35H0.25V72.35H26.05V68.35ZM-1.74876 70.4205C-1.27855 83.7432 4.23919 93.4523 12.3705 99.7899C20.4465 106.084 30.9595 108.95 41.35 108.95V104.95C31.6405 104.95 22.0535 102.266 14.8295 96.635C7.66081 91.0477 2.67855 82.4568 2.24876 70.2795L-1.74876 70.4205ZM41.35 108.95C53.3752 108.95 64.1152 105.263 71.8756 98.3358C79.6617 91.3861 84.3 81.3037 84.3 68.85H80.3C80.3 80.2463 76.0883 89.2139 69.212 95.3517C62.3098 101.512 52.5748 104.95 41.35 104.95V108.95ZM84.3 68.85C84.3 57.006 79.9696 47.7213 73.1175 41.4102C66.2916 35.1232 57.0887 31.9 47.5 31.9V35.9C56.2113 35.9 64.4084 38.8268 70.4076 44.3523C76.3804 49.8537 80.3 58.044 80.3 68.85H84.3Z" fill="#E2E574"/>
</svg>
