<svg width="84" height="107" viewBox="0 0 84 107" fill="none" xmlns="http://www.w3.org/2000/svg">
<path opacity="0.15" d="M38.95 35.1L37.3876 33.8514L39.7378 36.9383L38.95 35.1ZM67 -7.62939e-06L68.5624 1.24857L71.1585 -2.00001H67V-7.62939e-06ZM36.85 -7.62939e-06V-2.00001H35.8546L35.2545 -1.20594L36.85 -7.62939e-06ZM49.15 31.15C44.7055 31.15 41.5843 31.7951 38.1622 33.2617L39.7378 36.9383C42.6157 35.7049 45.1945 35.15 49.15 35.15V31.15ZM40.5124 36.3486L68.5624 1.24857L65.4376 -1.24858L37.3876 33.8514L40.5124 36.3486ZM67 -2.00001H36.85V1.99999H67V-2.00001ZM35.2545 -1.20594C25.571 11.6061 16.3144 22.9923 9.53641 33.9545C2.73119 44.9606 -1.75 55.7974 -1.75 67.65H2.25C2.25 56.8526 6.3188 46.7644 12.9386 36.058C19.5856 25.3077 28.629 14.1939 38.4455 1.20592L35.2545 -1.20594ZM-1.75 67.65C-1.75 92.7907 18.3913 108.95 41.8 108.95V104.95C20.2087 104.95 2.25 90.2093 2.25 67.65H-1.75ZM41.8 108.95C65.5647 108.95 85.05 92.4395 85.05 67.2H81.05C81.05 89.9605 63.6353 104.95 41.8 104.95V108.95ZM85.05 67.2C85.05 55.1187 80.5971 46.0461 73.7817 40.0148C67.0057 34.0183 58.036 31.15 49.15 31.15V35.15C57.214 35.15 65.1943 37.7567 71.1308 43.0102C77.0279 48.2289 81.05 56.1813 81.05 67.2H85.05ZM41.65 80.65C37.5167 80.65 34.1431 79.3015 31.8133 77.0352C29.4909 74.7759 28.05 71.4539 28.05 67.2H24.05C24.05 72.3961 25.8341 76.7991 29.0242 79.9023C32.2069 82.9985 36.6333 84.65 41.65 84.65V80.65ZM28.05 67.2C28.05 62.9537 29.4841 59.8051 31.7716 57.7043C34.0815 55.5829 37.4602 54.35 41.65 54.35V50.35C36.6898 50.35 32.2685 51.8171 29.0659 54.7582C25.8409 57.7199 24.05 61.9963 24.05 67.2H28.05ZM41.65 54.35C45.8398 54.35 49.2185 55.5829 51.5284 57.7043C53.8159 59.8051 55.25 62.9537 55.25 67.2H59.25C59.25 61.9963 57.4591 57.7199 54.2341 54.7582C51.0315 51.8171 46.6102 50.35 41.65 50.35V54.35ZM55.25 67.2C55.25 71.4539 53.8091 74.7759 51.4867 77.0352C49.1569 79.3015 45.7833 80.65 41.65 80.65V84.65C46.6667 84.65 51.0931 82.9985 54.2758 79.9023C57.4659 76.7991 59.25 72.3961 59.25 67.2H55.25Z" fill="#E2E574"/>
</svg>
