<svg width="78" height="105" viewBox="0 0 78 105" fill="none" xmlns="http://www.w3.org/2000/svg">
<path opacity="0.15" d="M0.75 -7.62939e-06V-2.00001H-1.25V-7.62939e-06H0.75ZM0.75 24.3H-1.25V26.3H0.75V24.3ZM46.5 24.3L48.2835 25.205L49.7576 22.3H46.5V24.3ZM5.55 105L3.76648 104.095L2.29237 107H5.55V105ZM34.35 105V107H35.5928L36.1432 105.886L34.35 105ZM77.25 18.15L79.0432 19.0357L79.25 18.617V18.15H77.25ZM77.25 -7.62939e-06H79.25V-2.00001H77.25V-7.62939e-06ZM-1.25 -7.62939e-06V24.3H2.75V-7.62939e-06H-1.25ZM0.75 26.3H46.5V22.3H0.75V26.3ZM44.7165 23.395L3.76648 104.095L7.33352 105.905L48.2835 25.205L44.7165 23.395ZM5.55 107H34.35V103H5.55V107ZM36.1432 105.886L79.0432 19.0357L75.4568 17.2642L32.5568 104.114L36.1432 105.886ZM79.25 18.15V-7.62939e-06H75.25V18.15H79.25ZM77.25 -2.00001H0.75V1.99999H77.25V-2.00001Z" fill="#E2E574"/>
</svg>
