<svg width="83" height="109" viewBox="0 0 83 109" fill="none" xmlns="http://www.w3.org/2000/svg">
<path opacity="0.15" d="M67 52.25L66.0497 50.4902L62.5312 52.3902L66.1619 54.0659L67 52.25ZM15.4 52.25L16.2381 54.0659L19.8688 52.3902L16.3503 50.4902L15.4 52.25ZM67.9503 54.0098C76.1242 49.5959 81.45 40.8034 81.45 30.5H77.45C77.45 39.3966 72.8758 46.8041 66.0497 50.4902L67.9503 54.0098ZM81.45 30.5C81.45 11.2797 63.587 -1.95001 41.2 -1.95001V2.04999C62.313 2.04999 77.45 14.3203 77.45 30.5H81.45ZM41.2 -1.95001C18.813 -1.95001 0.95 11.2797 0.95 30.5H4.95C4.95 14.3203 20.087 2.04999 41.2 2.04999V-1.95001ZM0.95 30.5C0.95 40.8034 6.27577 49.5959 14.4497 54.0098L16.3503 50.4902C9.52423 46.8041 4.95 39.3966 4.95 30.5H0.95ZM14.5619 50.4341C4.02986 55.295 -1.75 65.3545 -1.75 77H2.25C2.25 66.7455 7.27014 58.205 16.2381 54.0659L14.5619 50.4341ZM-1.75 77C-1.75 87.5548 2.91666 96.1222 10.6879 101.996C18.4104 107.832 29.1044 110.95 41.2 110.95V106.95C29.7456 106.95 19.9647 103.993 13.0996 98.8044C6.28334 93.6528 2.25 86.2452 2.25 77H-1.75ZM41.2 110.95C53.2957 110.95 63.9897 107.832 71.7122 101.996C79.4833 96.1222 84.15 87.5548 84.15 77H80.15C80.15 86.2452 76.1167 93.6528 69.3004 98.8044C62.4354 103.993 52.6544 106.95 41.2 106.95V110.95ZM84.15 77C84.15 65.3545 78.3701 55.295 67.8381 50.4341L66.1619 54.0659C75.1299 58.205 80.15 66.7455 80.15 77H84.15ZM41.2 26.05C45.7192 26.05 48.3515 27.1114 49.8402 28.4456C51.295 29.7495 51.95 31.5778 51.95 33.8H55.95C55.95 30.7722 55.03 27.7255 52.5098 25.4669C50.0235 23.2386 46.2808 22.05 41.2 22.05V26.05ZM51.95 33.8C51.95 35.9047 51.3275 37.3667 49.9702 38.3911C48.4927 39.5062 45.8272 40.35 41.2 40.35V44.35C46.1728 44.35 49.8823 43.4688 52.3798 41.5839C54.9975 39.6083 55.95 36.7953 55.95 33.8H51.95ZM41.2 40.35C36.5728 40.35 33.9073 39.5062 32.4298 38.3911C31.0725 37.3667 30.45 35.9047 30.45 33.8H26.45C26.45 36.7953 27.4025 39.6083 30.0202 41.5839C32.5177 43.4688 36.2272 44.35 41.2 44.35V40.35ZM30.45 33.8C30.45 31.5778 31.105 29.7495 32.5598 28.4456C34.0485 27.1114 36.6808 26.05 41.2 26.05V22.05C36.1192 22.05 32.3765 23.2386 29.8902 25.4669C27.37 27.7255 26.45 30.7722 26.45 33.8H30.45ZM41.2 82.95C36.1964 82.95 32.8497 82.0689 30.8034 80.6592C28.8888 79.3403 27.9 77.4136 27.9 74.6H23.9C23.9 78.5364 25.3862 81.7847 28.5341 83.9533C31.5503 86.0311 35.8536 86.95 41.2 86.95V82.95ZM27.9 74.6C27.9 71.6982 28.9878 69.8112 30.9722 68.5406C33.1061 67.1742 36.4773 66.4 41.2 66.4V62.4C36.1727 62.4 31.8939 63.2008 28.8153 65.1719C25.5872 67.2388 23.9 70.4518 23.9 74.6H27.9ZM41.2 66.4C45.9227 66.4 49.2939 67.1742 51.4278 68.5406C53.4122 69.8112 54.5 71.6982 54.5 74.6H58.5C58.5 70.4518 56.8128 67.2388 53.5847 65.1719C50.5061 63.2008 46.2273 62.4 41.2 62.4V66.4ZM54.5 74.6C54.5 77.4136 53.5112 79.3403 51.5966 80.6592C49.5503 82.0689 46.2036 82.95 41.2 82.95V86.95C46.5464 86.95 50.8497 86.0311 53.8659 83.9533C57.0138 81.7847 58.5 78.5364 58.5 74.6H54.5Z" fill="#E2E574"/>
</svg>
