<svg width="19" height="19" viewBox="0 0 19 19" fill="none" xmlns="http://www.w3.org/2000/svg">
<path d="M16.2379 4.15625H13.6883L13.3914 3.26563C13.2484 2.83318 12.9725 2.4569 12.6031 2.19038C12.2337 1.92386 11.7896 1.78069 11.3341 1.78125H7.66591C7.21052 1.7809 6.76663 1.92417 6.39737 2.19067C6.02811 2.45717 5.75229 2.83332 5.60916 3.26563L5.31169 4.15625H2.76213C2.18723 4.15688 1.63606 4.38554 1.22955 4.79205C0.823034 5.19856 0.594379 5.74973 0.59375 6.32463V15.0528C0.595007 15.6272 0.823939 16.1778 1.23038 16.5838C1.63683 16.9898 2.18764 17.2181 2.76213 17.2188H16.2402C16.8147 17.2175 17.3653 16.9886 17.7713 16.5821C18.1773 16.1757 18.4056 15.6249 18.4062 15.0504V6.32225C18.405 5.74777 18.1761 5.19721 17.7696 4.79121C17.3632 4.38521 16.8124 4.15688 16.2379 4.15625ZM17.2188 15.0504C17.2184 15.3104 17.115 15.5597 16.9311 15.7436C16.7472 15.9275 16.4979 16.0309 16.2379 16.0313H2.76213C2.50208 16.0309 2.25277 15.9275 2.06889 15.7436C1.88501 15.5597 1.78156 15.3104 1.78125 15.0504V6.32225C1.78219 6.06262 1.88591 5.81392 2.06973 5.63055C2.25354 5.44718 2.50249 5.34406 2.76213 5.34375H5.73978C5.86435 5.34366 5.98573 5.30439 6.08674 5.2315C6.18776 5.15862 6.26329 5.05581 6.30266 4.93763L6.7355 3.6391C6.8005 3.44378 6.92536 3.2739 7.09238 3.15357C7.25939 3.03324 7.46006 2.96858 7.66591 2.96875H11.3341C11.54 2.96853 11.7408 3.03324 11.9078 3.1537C12.0749 3.27416 12.1997 3.44421 12.2645 3.63969L12.6973 4.93763C12.7367 5.05581 12.8122 5.15862 12.9133 5.2315C13.0143 5.30439 13.1357 5.34366 13.2602 5.34375H16.2379C16.4979 5.34407 16.7472 5.44751 16.9311 5.63139C17.115 5.81527 17.2184 6.06458 17.2188 6.32463V15.0504Z" fill="#E2E574"/>
<path d="M9.5 5.9375C8.61925 5.9375 7.75829 6.19867 7.02598 6.68799C6.29366 7.1773 5.7229 7.87279 5.38585 8.68649C5.0488 9.50019 4.96062 10.3956 5.13244 11.2594C5.30427 12.1232 5.72839 12.9167 6.35117 13.5395C6.97395 14.1622 7.76742 14.5864 8.63124 14.7582C9.49506 14.93 10.3904 14.8418 11.2041 14.5048C12.0178 14.1677 12.7133 13.597 13.2026 12.8647C13.6919 12.1323 13.9531 11.2714 13.9531 10.3906C13.9519 9.20997 13.4823 8.07803 12.6474 7.24318C11.8126 6.40833 10.6807 5.93876 9.5 5.9375ZM9.5 13.6563C8.85412 13.6563 8.22274 13.4647 7.68572 13.1059C7.14869 12.7471 6.73012 12.237 6.48296 11.6403C6.23579 11.0436 6.17112 10.387 6.29712 9.75353C6.42313 9.12006 6.73415 8.53819 7.19085 8.08148C7.64756 7.62477 8.22944 7.31375 8.86291 7.18775C9.49638 7.06174 10.153 7.12641 10.7497 7.37358C11.3464 7.62075 11.8564 8.03931 12.2153 8.57634C12.5741 9.11337 12.7656 9.74475 12.7656 10.3906C12.7647 11.2564 12.4203 12.0865 11.8081 12.6987C11.1959 13.3109 10.3658 13.6553 9.5 13.6563Z" fill="#E2E574"/>
<path d="M15.4375 7.71875C15.7654 7.71875 16.0312 7.45292 16.0312 7.125C16.0312 6.79708 15.7654 6.53125 15.4375 6.53125C15.1096 6.53125 14.8438 6.79708 14.8438 7.125C14.8438 7.45292 15.1096 7.71875 15.4375 7.71875Z" fill="#E2E574"/>
</svg>
