<svg width="219" height="44" viewBox="0 0 219 44" fill="none" xmlns="http://www.w3.org/2000/svg">
<path d="M99.7045 24.5037H92.5395L85.3403 0H92.5395L99.7045 24.5037Z" fill="white"/>
<path d="M99.7046 24.5037H106.904L114.069 0H106.904L99.7046 24.5037Z" fill="white"/>
<path d="M66.7513 11.8293H59.9917V37.178H66.7513V11.8293Z" fill="white"/>
<path d="M24.5037 5.9147H17.744V30.4184H24.5037V5.9147Z" fill="white"/>
<path d="M37.178 24.5037H17.744V30.4183H37.178V24.5037Z" fill="white"/>
<path d="M147.022 18.589H140.262V43.0927H147.022V18.589Z" fill="white"/>
<path d="M156.316 18.589H130.968V24.5037H156.316V18.589Z" fill="white"/>
<path d="M182.51 37.178H189.411L201.099 11.8293H194.214L182.51 37.178Z" fill="white"/>
<path d="M174.906 11.8293L180.964 24.5037H188.425L182.367 11.8293H174.906Z" fill="white"/>
<path d="M218.843 23.6587H0V25.3486H218.843V23.6587Z" fill="white"/>
</svg>
