<svg width="28" height="28" viewBox="0 0 28 28" fill="none" xmlns="http://www.w3.org/2000/svg">
<path d="M14 26.25C10.7511 26.25 7.63526 24.9594 5.33794 22.6621C3.04062 20.3647 1.75 17.2489 1.75 14C1.75 10.7511 3.04062 7.63526 5.33794 5.33794C7.63526 3.04062 10.7511 1.75 14 1.75C17.2489 1.75 20.3647 3.04062 22.6621 5.33794C24.9594 7.63526 26.25 10.7511 26.25 14C26.25 17.2489 24.9594 20.3647 22.6621 22.6621C20.3647 24.9594 17.2489 26.25 14 26.25ZM14 28C17.713 28 21.274 26.525 23.8995 23.8995C26.525 21.274 28 17.713 28 14C28 10.287 26.525 6.72601 23.8995 4.10051C21.274 1.475 17.713 0 14 0C10.287 0 6.72601 1.475 4.10051 4.10051C1.475 6.72601 0 10.287 0 14C0 17.713 1.475 21.274 4.10051 23.8995C6.72601 26.525 10.287 28 14 28V28Z" fill="#E2E574"/>
<path d="M11.5419 8.11093C11.7055 8.02672 11.8891 7.98925 12.0726 8.00266C12.256 8.01607 12.4322 8.07983 12.5818 8.18692L19.5809 13.1862C19.7105 13.2787 19.8162 13.4008 19.8891 13.5423C19.962 13.6839 20 13.8408 20 14.0001C20 14.1593 19.962 14.3162 19.8891 14.4578C19.8162 14.5993 19.7105 14.7215 19.5809 14.8139L12.5818 19.8132C12.4323 19.9202 12.2562 19.9839 12.0728 19.9973C11.8894 20.0107 11.7059 19.9733 11.5424 19.8892C11.3789 19.8051 11.2418 19.6775 11.1461 19.5205C11.0504 19.3635 10.9999 19.1832 11 18.9993V9.0008C10.9998 8.81699 11.0503 8.63669 11.1459 8.4797C11.2415 8.32271 11.3785 8.19512 11.5419 8.11093Z" fill="#E2E574"/>
</svg>
