<svg width="42" height="42" viewBox="0 0 42 42" fill="none" xmlns="http://www.w3.org/2000/svg">
<g clip-path="url(#clip0_233_3439)">
<path d="M16.0364 32.0744C12.8642 32.075 9.76309 31.1348 7.12535 29.3726C4.48761 27.6105 2.43175 25.1056 1.21783 22.1748C0.00391032 19.2441 -0.313531 16.0192 0.305661 12.908C0.924853 9.7968 2.45286 6.93915 4.69639 4.69651C10.9472 -1.55509 21.1182 -1.55509 27.3698 4.69651C33.6214 10.9481 33.6206 21.1183 27.3698 27.37C25.8827 28.8607 24.1163 30.0435 22.1716 30.8507C20.2268 31.658 18.142 32.0738 16.0364 32.0744ZM16.0364 4.10999C13.4757 4.11245 10.9837 4.93855 8.92867 6.46623C6.87361 7.99391 5.36447 10.1421 4.62424 12.5935C3.884 15.0448 3.95194 17.6693 4.81801 20.0791C5.68408 22.4888 7.30235 24.5561 9.4337 25.9754C10.1019 26.4206 10.8138 26.7963 11.5583 27.0968C13.7302 27.9772 16.1134 28.1978 18.4099 27.7309C20.7065 27.264 22.8144 26.1304 24.47 24.4718C29.122 19.8198 29.122 12.2491 24.47 7.59878C23.363 6.48981 22.0478 5.61049 20.5999 5.01135C19.152 4.41221 17.6001 4.10506 16.0331 4.10753L16.0364 4.10999Z" fill="#88A1BD"/>
<path d="M39.9494 42.0003C39.68 42.0006 39.4132 41.9478 39.1643 41.8447C38.9154 41.7417 38.6893 41.5905 38.499 41.3998L24.4717 27.3725C24.0871 26.9878 23.871 26.4661 23.871 25.9221C23.871 25.3782 24.0871 24.8565 24.4717 24.4718C24.8564 24.0872 25.378 23.8711 25.922 23.8711C26.466 23.8711 26.9877 24.0872 27.3723 24.4718L41.3997 38.4992C41.6866 38.786 41.8819 39.1514 41.9611 39.5493C42.0403 39.9472 41.9996 40.3596 41.8444 40.7344C41.6891 41.1091 41.4262 41.4294 41.0889 41.6548C40.7516 41.8801 40.355 42.0004 39.9494 42.0003Z" fill="#88A1BD"/>
</g>
<defs>
<clipPath id="clip0_233_3439">
<rect width="42" height="42" fill="white"/>
</clipPath>
</defs>
</svg>
